<?xml version="1.0" encoding="UTF-8"?>
<svg id="Layer_1" xmlns="http://www.w3.org/2000/svg" version="1.1" viewBox="0 0 48 48">
  <!-- Generator: Adobe Illustrator 29.8.4, SVG Export Plug-In . SVG Version: 2.1.1 Build 6)  -->
  <defs>
    <style>
      .st0 {
        fill: #b1523b;
      }
    </style>
  </defs>
  <path class="st0" d="M47.42,17.91c-.02-.33-.11-.77-.92-1.19-.07-.02-.11-.07-.18-.09-.15-.09-.31-.2-.44-.35-.07-.09-.15-.18-.22-.26-.73-.84-1.25-1.36-1.54-1.54-.09-.04-.15-.11-.2-.18-.13-.13-.2-.29-.22-.44,0-.04-.02-.09-.02-.13s-.02-.09-.02-.11c0-.04-.02-.07-.02-.11-.04-.33-.33-.55-.57-.77-.26-.24-.55-.48-.81-.73-.33-.29-.5-.44-.79-.77-.11-.13-.24-.2-.33-.29-.22-.22-.66,0-.95.57-.18.35-.31.44-.64.59s-.66.33-1.01.44c-.04.02-.09.04-.15.04-.04,0-.09,0-.13.02-1.19.07-3.06,0-5.08-.11-1.83-.29-3.56-.42-5.19.11-2.2.73-7.63-.02-11.43-.53-1.14-.4-2.46-.66-3.78-.77h0c-2.05-.33-5.94-.11-7.41.81-2.38,1.5-1.96,4.38-2,6.84-.04,1.6-.37,3.61-.77,4.62-1.43,1.19-3.12,2.73-1.14,5.83.31-1.74,2.97-2.84,1.98-5.78.35-.92.66-2.95.68-4.66.02-2.35-.29-5.45,2.68-6.38-1.41,1.05-2.11,2.79-1.45,5.43.22.9.57,1.69.77,2.62.62,2.68.31,4.77-.97,6.24-.31.37-.48.86-.42,1.34.33,2.66.48,4.79.46,6.36.55.66.66,1.14.66,1.14-.09.37-.13.59-.13.77-.02.66,0,.62.53.62h1.65c.99,0,.64-.35.33-.97-.11-.22-.31-.4-.44-.48-1.12-2.26-1.28-4.44-.46-6.51.13-.33.29-.68.46-1.01.29,1.23.53,2.33.7,3.32.15.84.59,2.46.66,3.12.62.66.81,1.14.81,1.14-.04.37-.07.59-.04.77.04.66.07.62.59.62h1.65c.31,0,.48-.04.57-.11.18-.15-.09-.44-.35-.88-.13-.22-.35-.4-.5-.48-1.03-1.67-1.85-4.16-1.83-5.72.07-.48.2-.95.4-1.36.37-.77.95-1.45,1.69-2.02.24-.2.46-.18.73-.07.55.2,1.1.4,1.65.57.4.13.81.29,1.21.44.64.24,1.28.33,1.96.33,1.45-.02,2.88-.15,4.29-.42.9-.04,1.87-.2,2.93-.5h0c.13.88.29,1.89.37,2.57,0,.04,0,.09.02.13,0,.11.02.22.04.31.09.4.22.68.24,1.08.09,1.01.07,2.79.07,3.56.55.66.66,1.14.66,1.14-.09.37-.13.59-.13.77-.02.66,0,.62.5.62h1.67c.99,0,.64-.35.33-.97-.11-.22-.31-.4-.44-.48-.59-1.21-.88-3.14-.92-4.31-.02-.42.44-.97.48-1.36.13-.95.35-2,.64-2.88.2.02.4.07.59.24.13,1.01.35,2.35.44,3.14.04.57.26.9.29,1.41.09,1.01.11,1.91.09,2.68.55.66.66,1.14.66,1.14-.09.37-.13.59-.13.77-.02.66,0,.62.53.62h1.65c.99,0,.64-.35.33-.97-.11-.22-.31-.4-.44-.48-.59-1.21-.92-2.29-.97-3.45-.02-.42.44-.97.48-1.36.2-1.43.57-2.66,1.08-4.05,3.08-1.32,3.36-4.31,6.46-6.71,1.45-.04,2.57-.22,3.41-.5.53-.13,1.23,0,2.07.37.97.35,1.47.18,1.47-.5.35.04.53-.04.53-.26.33-.37.5-.79.46-1.25h-.02Z"/>
</svg>