<?xml version="1.0" encoding="UTF-8"?>
<svg id="Layer_1" xmlns="http://www.w3.org/2000/svg" version="1.1" viewBox="0 0 600 492.4">
  <!-- Generator: Adobe Illustrator 29.7.1, SVG Export Plug-In . SVG Version: 2.1.1 Build 8)  -->
  <defs>
    <style>
      .st0 {
        fill: #f3f3f3;
      }
    </style>
  </defs>
  <polygon class="st0" points="600 369.87 300 492.4 0 369.87 0 0 600 0 600 369.87"/>
  <g>
    <path d="M385.39,64.3c-.08-1.25-.42-2.91-3.49-4.49-.25-.08-.42-.25-.67-.33-.58-.33-1.16-.75-1.66-1.33-.25-.33-.58-.67-.83-1-2.75-3.16-4.74-5.16-5.82-5.82-.33-.17-.58-.42-.75-.67-.5-.5-.75-1.08-.83-1.66,0-.17-.08-.33-.08-.5s-.08-.33-.08-.42c0-.17-.08-.25-.08-.42-.17-1.25-1.25-2.08-2.16-2.91-1-.92-2.08-1.83-3.08-2.75-1.25-1.08-1.91-1.66-3-2.91-.42-.5-.92-.75-1.25-1.08-.83-.83-2.5,0-3.58,2.16-.67,1.33-1.16,1.66-2.41,2.25s-2.5,1.25-3.83,1.66c-.17.08-.33.17-.58.17-.17,0-.33,0-.5.08-4.49.25-11.57,0-19.22-.42-6.91-1.08-13.48-1.58-19.64.42-8.32,2.75-28.87-.08-43.27-2-4.33-1.5-9.32-2.5-14.31-2.91h0c-7.74-1.25-22.47-.42-28.04,3.08-8.99,5.66-7.41,16.56-7.57,25.88-.17,6.07-1.41,13.65-2.91,17.47-5.41,4.49-11.82,10.32-4.33,22.05,1.16-6.57,11.23-10.73,7.49-21.88,1.33-3.49,2.5-11.15,2.58-17.64.08-8.9-1.08-20.64,10.15-24.13-5.33,3.99-7.99,10.57-5.49,20.55.83,3.41,2.16,6.41,2.91,9.9,2.33,10.15,1.16,18.06-3.66,23.63-1.16,1.41-1.83,3.25-1.58,5.08,1.25,10.07,1.83,18.14,1.75,24.05,2.08,2.5,2.5,4.33,2.5,4.33-.33,1.41-.5,2.25-.5,2.91-.08,2.5,0,2.33,2,2.33h6.24c3.74,0,2.41-1.33,1.25-3.66-.42-.83-1.16-1.5-1.66-1.83-4.24-8.57-4.83-16.81-1.75-24.63.5-1.25,1.08-2.58,1.75-3.83,1.08,4.66,2,8.82,2.66,12.56.58,3.16,2.25,9.32,2.5,11.82,2.33,2.5,3.08,4.33,3.08,4.33-.17,1.41-.25,2.25-.17,2.91.17,2.5.25,2.33,2.25,2.33h6.24c1.16,0,1.83-.17,2.16-.42.67-.58-.33-1.66-1.33-3.33-.5-.83-1.33-1.5-1.91-1.83-3.91-6.32-6.99-15.73-6.91-21.63.25-1.83.75-3.58,1.5-5.16,1.41-2.91,3.58-5.49,6.41-7.66.92-.75,1.75-.67,2.75-.25,2.08.75,4.16,1.5,6.24,2.16,1.5.5,3.08,1.08,4.58,1.66,2.41.92,4.83,1.25,7.41,1.25,5.49-.08,10.9-.58,16.23-1.58,3.41-.17,7.07-.75,11.07-1.91h0c.5,3.33,1.08,7.16,1.41,9.74,0,.17,0,.33.08.5,0,.42.08.83.17,1.16.33,1.5.83,2.58.92,4.08.33,3.83.25,10.57.25,13.48,2.08,2.5,2.5,4.33,2.5,4.33-.33,1.41-.5,2.25-.5,2.91-.08,2.5,0,2.33,1.91,2.33h6.32c3.74,0,2.41-1.33,1.25-3.66-.42-.83-1.16-1.5-1.66-1.83-2.25-4.58-3.33-11.9-3.49-16.31-.08-1.58,1.66-3.66,1.83-5.16.5-3.58,1.33-7.57,2.41-10.9.75.08,1.5.25,2.25.92.5,3.83,1.33,8.9,1.66,11.9.17,2.16,1,3.41,1.08,5.33.33,3.83.42,7.24.33,10.15,2.08,2.5,2.5,4.33,2.5,4.33-.33,1.41-.5,2.25-.5,2.91-.08,2.5,0,2.33,2,2.33h6.24c3.74,0,2.41-1.33,1.25-3.66-.42-.83-1.16-1.5-1.66-1.83-2.25-4.58-3.49-8.65-3.66-13.06-.08-1.58,1.66-3.66,1.83-5.16.75-5.41,2.16-10.07,4.08-15.31,11.65-4.99,12.73-16.31,24.46-25.38,5.49-.17,9.74-.83,12.9-1.91,2-.5,4.66,0,7.82,1.41,3.66,1.33,5.58.67,5.58-1.91,1.33.17,2-.17,2-1,1.25-1.41,1.91-3,1.75-4.74Z"/>
    <g>
      <path d="M111.54,223.73c-1-.25-1.83-.58-2.41-1-.58-.42-1.08-1-1.58-1.75l-10.48-16.39c1.66-.5,3.16-1.25,4.58-2.16,2.08-1.41,3.66-3.08,4.83-5.16s1.66-4.41,1.66-6.99c0-3.66-1-6.91-3.08-9.74s-4.99-5.08-8.99-6.66c-3.91-1.58-8.74-2.41-14.4-2.41h-17.97c-.67,0-1.16.17-1.5.42-.33.25-.5.58-.5,1.08,0,.83.5,1.33,1.58,1.58l2.58.5c.67.17,1.08.42,1.5.75.33.33.5.83.5,1.33v44.02c0,.58-.17,1-.5,1.33-.33.33-.83.58-1.5.75l-2.58.5c-1,.25-1.58.83-1.58,1.58,0,.42.17.83.5,1.08.33.25.83.42,1.5.42h18.22c1.33,0,1.91-.5,1.91-1.5,0-.42-.08-.75-.33-1-.25-.25-.58-.5-1.16-.67l-3.49-.5c-.58-.17-1-.42-1.33-.75-.33-.33-.42-.83-.42-1.33v-16.14c.17.08.33.08.42.17,1.33.42,2.75.75,4.33,1s3.16.33,4.83.33c.58,0,1.08,0,1.66-.08l9.32,15.14c.42.67.58,1.16.5,1.58-.08.33-.42.67-1,.83l-1.5.33c-.42.17-.75.33-.92.5-.17.17-.33.42-.33.75,0,1,.67,1.5,2,1.5h15.39c.67,0,1.16-.17,1.58-.42.33-.25.5-.58.5-1.08,0-.42-.17-.75-.42-1-.33-.25-1-.5-1.91-.75ZM85.17,203.18c-1.41,0-2.75-.08-4.08-.33-1.33-.25-2.58-.5-3.74-.92-.08,0-.17-.08-.25-.08v-27.29h4.41c3.49,0,6.49.67,9.07,2,2.58,1.33,4.49,3.25,5.91,5.66,1.41,2.41,2.08,5.08,2.08,8.15,0,4.16-1.16,7.32-3.58,9.49-2.41,2.25-5.66,3.33-9.82,3.33Z"/>
      <path d="M177.11,210.91c-.42-.08-.83,0-1.25.17-.33.17-.67.5-.92,1-1.33,3.25-2.58,5.74-3.66,7.32-1.08,1.66-2.25,2.75-3.41,3.33-1.16.58-2.66.83-4.41.83h-9.57c-1.5,0-2.58-.33-3.33-.92-.75-.58-1.08-1.5-1.08-2.66v-19.31h11.65c1.08,0,1.91.08,2.66.33.67.25,1.33.67,1.91,1.33s1.16,1.58,1.83,2.75c.25.42.58.67.92.83.33.17.75.17,1.25.08.42-.17.75-.42.92-.75.17-.33.17-.75,0-1.33l-2.91-11.32c-.25-1.08-.83-1.5-1.66-1.41-.42.08-.75.25-1,.5s-.42.67-.5,1.25c-.25,1.83-.67,3-1.33,3.66-.67.58-1.75.92-3.41.92h-10.24v-22.88h12.81c1.33,0,2.41.08,3.41.33,1,.25,1.83.67,2.66,1.25.83.67,1.58,1.58,2.33,2.83.75,1.25,1.58,2.83,2.5,4.83.25.58.67.92,1.08,1.16.42.25.92.25,1.5.08.5-.17.83-.42,1-.75s.17-.83,0-1.33l-3.08-11.07c-.25-.83-.5-1.33-.83-1.75-.33-.33-.83-.5-1.5-.5-.58,0-1.16.17-1.58.42-.5.25-1,.58-1.5.83-.58.25-1.25.42-2.08.42h-30.12c-.67,0-1.16.17-1.5.42s-.5.58-.5,1.08c0,.83.5,1.33,1.5,1.58l2.58.5c.67.17,1.16.42,1.5.75s.5.83.5,1.33v44.02c0,.58-.17,1-.5,1.33-.33.33-.83.58-1.5.75l-2.58.5c-1,.25-1.5.83-1.5,1.58,0,.42.17.83.5,1.08s.83.42,1.5.42h31.45c.83,0,1.5.17,2,.42.5.25,1.08.5,1.5.75.5.25,1,.33,1.58.33.67,0,1.25-.17,1.58-.58.33-.33.67-.92.83-1.75l3.25-12.98c.17-.67.08-1.16-.08-1.5-.25-.17-.67-.42-1.16-.5Z"/>
      <path d="M246.35,179.71c-2.91-2.58-6.32-4.66-10.4-6.07-3.99-1.41-8.49-2.16-13.4-2.16h-19.31c-.67,0-1.16.17-1.5.42-.33.25-.5.58-.5,1.08,0,.83.5,1.33,1.5,1.58l2.58.5c.67.17,1.16.42,1.5.75.33.33.5.83.5,1.33v44.02c0,.58-.17,1-.5,1.33s-.83.58-1.5.75l-2.58.5c-1,.25-1.5.83-1.5,1.58,0,.42.17.83.5,1.08.33.25.83.42,1.5.42h22.8c6.24,0,11.48-1.16,15.89-3.41,4.33-2.25,7.74-5.41,9.99-9.32,2.33-3.91,3.49-8.4,3.49-13.48,0-4.24-.75-8.15-2.33-11.73-1.58-3.49-3.83-6.57-6.74-9.15ZM243.27,213.16c-1.66,3.41-3.99,6.07-6.99,7.82-3,1.75-6.66,2.66-10.82,2.66h-4.58c-1.41,0-2.5-.25-3.25-.83-.67-.5-1.08-1.41-1.08-2.5v-45.6h4.83c3.74,0,7.07.58,10.07,1.83s5.49,2.91,7.66,5.24c2.16,2.25,3.74,4.99,4.83,8.07,1.08,3.16,1.66,6.66,1.66,10.65.17,4.99-.67,9.24-2.33,12.65Z"/>
      <path d="M359.76,211.75c-.33-.08-.67,0-1,.17-.25.17-.58.5-.83,1-1.41,3.16-3.49,5.66-6.24,7.41-2.75,1.75-6.07,2.66-9.99,2.66s-7.41-1-10.48-3c-3.08-2-5.58-4.91-7.32-8.74-1.83-3.83-2.66-8.4-2.66-13.81,0-3.58.42-6.82,1.33-9.74s2.16-5.41,3.74-7.57c1.58-2.08,3.49-3.74,5.66-4.83,2.16-1.08,4.58-1.66,7.07-1.66s4.91.42,7.07,1.25,4.08,2.25,5.91,4.16c1.75,1.91,3.41,4.41,4.91,7.57.25.5.58.83.92,1.08.42.25.83.25,1.33.17s.92-.33,1.16-.75.33-.83.17-1.41l-4.24-13.4c-.17-.58-.42-1-.67-1.25s-.58-.33-.92-.33c-.67,0-1.08.25-1.33.75-.25.5-.58.92-.83,1.41-.25.5-.75.75-1.33.75-.5,0-1.25-.25-2.16-.83-1-.58-2.33-1.16-3.99-1.66-1.75-.58-3.99-.83-6.74-.83-3.74,0-7.24.75-10.4,2.16-3.16,1.41-5.99,3.49-8.32,6.16s-4.16,5.74-5.49,9.32-2,7.49-2,11.73c0,5.58,1.08,10.57,3.33,14.89,2.16,4.33,5.33,7.74,9.4,10.15,4.08,2.5,8.9,3.66,14.56,3.66,3.41,0,6.41-.5,9.07-1.41,2.66-.92,4.91-2.16,6.74-3.66,1.83-1.5,3.25-3.16,4.24-4.99s1.5-3.58,1.5-5.33c0-.33-.08-.67-.25-.83-.33-.25-.58-.42-.92-.42Z"/>
      <path d="M430.99,178.46c-2.5-2.66-5.41-4.66-8.9-6.07-3.41-1.41-7.24-2.16-11.4-2.16s-7.91.67-11.32,2.08-6.32,3.41-8.82,5.99c-2.41,2.58-4.33,5.58-5.66,9.07-1.33,3.49-2,7.32-2,11.57s.67,8.24,2,11.82,3.25,6.66,5.74,9.32,5.41,4.66,8.82,6.07,7.16,2.16,11.32,2.16,7.99-.67,11.4-2.08,6.41-3.41,8.82-5.99,4.33-5.58,5.66-9.15c1.33-3.49,2-7.32,2-11.48s-.67-8.24-2-11.82c-1.25-3.66-3.16-6.74-5.66-9.32ZM427.25,215.49c-1.33,3-3.25,5.33-5.66,6.91-2.41,1.58-5.24,2.41-8.49,2.41-2.25,0-4.41-.5-6.49-1.5s-3.91-2.5-5.66-4.33c-1.66-1.91-3.16-4.16-4.41-6.74s-2.25-5.41-2.91-8.57c-.67-3.08-1-6.41-1-9.9,0-4.16.67-7.82,2-10.82s3.25-5.33,5.66-6.91c2.41-1.58,5.24-2.41,8.4-2.41,2.33,0,4.49.5,6.49,1.58,2.08,1,3.91,2.5,5.66,4.33,1.75,1.91,3.16,4.08,4.49,6.66,1.25,2.58,2.25,5.41,2.91,8.49s1.08,6.41,1.08,9.82c-.08,4.33-.75,7.99-2.08,10.98Z"/>
      <path d="M539,171.89c-.33-.25-.83-.42-1.58-.42h-12.15c-.67,0-1.16.17-1.5.42-.33.25-.5.58-.5,1.08,0,.33.08.67.33.83.25.25.58.42,1.08.5l2.66.5c1.16.25,1.91.75,2.16,1.41s.17,1.58-.17,2.75l-11.65,38.86-11.9-40.02c-.33-1.08-.42-1.83-.25-2.25s.5-.67,1.08-.83l3-.42c.5-.17.92-.33,1.16-.58.25-.25.42-.5.42-.92,0-.5-.17-.83-.5-1.08-.33-.25-.83-.42-1.5-.42h-16.14c-.67,0-1.16.17-1.5.42-.33.25-.5.58-.5,1.08,0,.33.08.58.33.83.17.25.58.42,1.16.58l1.75.5c.5.17.83.33,1.08.67.25.25.5.83.75,1.66l1.83,5.99-11.23,34.45-12.32-39.78c-.25-1-.42-1.75-.25-2.16.08-.42.5-.75,1.16-.83l3.08-.5c.92-.25,1.41-.67,1.41-1.41,0-.42-.17-.83-.5-1.08-.33-.25-.83-.42-1.5-.42h-16.48c-.75,0-1.25.17-1.58.42s-.5.58-.5,1c0,.33.08.67.33.92.17.25.58.5,1.16.67l1.75.5c.58.17,1,.42,1.33.75s.58.83.83,1.5l13.73,43.77c.25.67.33,1.25.42,1.58s.08.75.08,1.25v1.41c0,.58.17,1,.5,1.25.33.33.75.42,1.25.42h6.82c.5,0,.92-.17,1.16-.42.25-.33.42-.75.42-1.25v-1.41c0-.58.08-1.16.17-1.58.08-.5.25-1,.42-1.5l10.15-31.37,9.49,31.54c.25.75.33,1.33.33,1.66v2.66c0,.58.17,1,.42,1.25.33.33.75.42,1.25.42h7.24c.5,0,.92-.17,1.16-.42.25-.33.42-.75.42-1.25v-1.41c0-.5.08-1,.17-1.41.08-.42.25-1,.5-1.66l12.4-41.27c.42-1.33.83-2.33,1.33-3,.5-.58,1.08-1.08,1.83-1.41l1.58-.5c.67-.25,1.08-.5,1.25-.67.17-.25.33-.5.33-.83-.08-.42-.25-.75-.5-1Z"/>
    </g>
    <g>
      <path d="M147.57,256.18c0-.42.42-.75.75-.75h1l18.06,20.89h.08v-19.64c0-.42.33-.75.75-.75h2.66c.42,0,.75.33.75.75v27.96c0,.42-.33.75-.75.75h-1.08l-18.06-21.47h0v20.22c0,.42-.33.75-.75.75h-2.58c-.42,0-.75-.33-.75-.75l-.08-27.96h0Z"/>
      <path d="M188.35,283.89l12.73-27.96c.17-.25.5-.5.67-.5h.42c.17,0,.58.25.67.5l12.65,27.96c.25.5-.08,1.08-.67,1.08h-2.58c-.5,0-.75-.25-.92-.58l-2.58-5.66h-13.56c-.83,1.91-1.66,3.74-2.5,5.66-.17.33-.42.58-.92.58h-2.58c-.75,0-1.08-.58-.83-1.08ZM207.24,275.07l-5.08-11.4h-.25l-5.08,11.4h10.4Z"/>
      <path d="M232.28,256.18c0-.42.42-.75.75-.75h1l18.06,20.89h.08v-19.64c0-.42.33-.75.75-.75h2.66c.42,0,.75.33.75.75v27.96c0,.42-.33.75-.75.75h-1.08l-18.06-21.47h0v20.22c0,.42-.33.75-.75.75h-2.58c-.42,0-.75-.33-.75-.75l-.08-27.96h0Z"/>
      <path d="M280.96,259.76h-6.74c-.42,0-.75-.33-.75-.75v-2.33c0-.42.33-.75.75-.75h17.89c.42,0,.75.33.75.75v2.33c0,.42-.33.75-.75.75h-6.74v24.38c0,.42-.42.75-.75.75h-2.83c-.42,0-.75-.33-.75-.75v-24.38h-.08Z"/>
      <path d="M307.17,256.85c-.17-.58.17-1,.75-1h2.75c.33,0,.67.25.75.58l4.99,19.06h.17l6.74-19.64c.08-.25.33-.5.67-.5h.75c.33,0,.58.25.67.5l6.82,19.64h.17l4.91-19.06c.08-.33.42-.58.75-.58h2.75c.58,0,.92.42.75,1l-7.82,27.96c-.08.33-.42.58-.75.58h-.67c-.33,0-.58-.17-.67-.42l-7.32-20.64h-.25l-7.16,20.64c-.08.25-.42.42-.67.42h-.67c-.33,0-.67-.25-.75-.58l-7.66-27.96Z"/>
      <path d="M359.6,256.6c0-.42.42-.75.75-.75h2.75c.42,0,.75.33.75.75v27.54c0,.42-.33.75-.75.75h-2.75c-.42,0-.75-.33-.75-.75v-27.54Z"/>
      <path d="M397.37,255.43c4.16,0,7.24,1.41,10.07,3.83.42.33.42.83.08,1.16l-1.83,1.83c-.33.42-.67.42-1,0-1.91-1.66-4.58-2.75-7.16-2.75-5.91,0-10.4,4.99-10.4,10.82s4.49,10.73,10.48,10.73c3,0,5.16-1.16,7.16-2.75.33-.25.75-.25,1-.08l1.91,1.83c.33.25.25.83-.08,1.08-2.83,2.75-6.41,3.99-10.07,3.99-8.32,0-14.98-6.57-14.98-14.89-.17-8.15,6.49-14.81,14.81-14.81Z"/>
      <path d="M425.92,256.6c0-.42.42-.75.75-.75h2.75c.42,0,.75.33.75.75v11.57h15.23v-11.57c0-.42.33-.75.75-.75h2.75c.42,0,.75.33.75.75v27.54c0,.42-.42.75-.75.75h-2.75c-.42,0-.75-.33-.75-.75v-11.98h-15.23v11.98c0,.42-.33.75-.75.75h-2.75c-.42,0-.75-.33-.75-.75v-27.54Z"/>
    </g>
    <g>
      <path d="M173.54,308.44c1.83,0,3.16.67,4.41,1.75.17.17.17.33,0,.5s-.33.33-.5.5c-.17.17-.25.17-.5,0-.92-.83-2.25-1.41-3.49-1.41-2.91,0-5.08,2.41-5.08,5.24s2.16,5.33,5.08,5.33c2,0,3.33-.75,3.33-.75v-2.58h-2.08c-.17,0-.33-.17-.33-.33v-.67c0-.17.17-.33.33-.33h3.16c.17,0,.33.17.33.33v4.24c0,.08-.08.25-.17.33,0,0-1.83,1.25-4.49,1.25-3.66,0-6.66-2.91-6.66-6.57s3-6.82,6.66-6.82Z"/>
      <path d="M184.94,309.02c0-.17.17-.33.33-.33h4.74c2.16,0,3.99,1.75,3.99,3.91,0,1.66-1.08,3.08-2.75,3.74l2.5,4.66c.17.25,0,.5-.33.5h-.92c-.17,0-.25-.08-.33-.17l-2.41-4.83h-3.49v4.66c0,.17-.17.33-.33.33h-.67c-.17,0-.33-.17-.33-.33v-12.15ZM189.93,315.26c1.41,0,2.66-1.16,2.66-2.66,0-1.41-1.25-2.58-2.66-2.58h-3.58v5.24h3.58Z"/>
      <path d="M199,321l5.58-12.32c.08-.08.17-.17.33-.17h.17c.17,0,.25.08.33.17l5.58,12.32c.08.25,0,.5-.33.5h-.75c-.17,0-.25-.08-.33-.17l-1.33-3h-6.49l-1.33,3c0,.08-.17.17-.33.17h-.75c-.33,0-.5-.25-.33-.5ZM207.74,317.09c-.92-2-1.75-3.99-2.66-5.99h-.17l-2.66,5.99h5.49Z"/>
      <path d="M215.23,320.84l6.66-10.82v-.08h-5.74c-.17,0-.33-.17-.33-.33v-.58c0-.17.17-.33.33-.33h7.41c.17,0,.33.17.33.33v.25l-6.74,10.98h6.07c.17,0,.33.17.33.33v.58c0,.17-.17.33-.33.33h-7.57c-.17,0-.33-.17-.33-.33l-.08-.33h0Z"/>
      <path d="M230.04,309.02c0-.17.17-.33.33-.33h7.24c.17,0,.33.17.33.33v.5c0,.17-.17.33-.33.33h-6.16v4.49h5.24c.17,0,.33.17.33.33v.5c0,.17-.17.33-.33.33h-5.24v4.66h6.16c.17,0,.33.17.33.33v.5c0,.17-.17.33-.33.33h-7.24c-.17,0-.33-.17-.33-.33v-11.98Z"/>
      <path d="M273.56,308.44c1.83,0,3.16.67,4.41,1.75.17.17.17.33,0,.5l-.5.5c-.17.17-.25.17-.5,0-.92-.83-2.25-1.41-3.49-1.41-2.91,0-5.08,2.41-5.08,5.24s2.16,5.33,5.08,5.33c2,0,3.33-.75,3.33-.75v-2.58h-2.08c-.17,0-.33-.17-.33-.33v-.67c0-.17.17-.33.33-.33h3.16c.17,0,.33.17.33.33v4.24c0,.08-.08.25-.17.33,0,0-1.83,1.25-4.49,1.25-3.66,0-6.66-2.91-6.66-6.57,0-3.83,2.91-6.82,6.66-6.82Z"/>
      <path d="M283.21,321l5.58-12.32c.08-.08.17-.17.33-.17h.17c.17,0,.25.08.33.17l5.58,12.32c.08.25,0,.5-.33.5h-.75c-.17,0-.25-.08-.33-.17l-1.33-3h-6.49l-1.33,3c0,.08-.17.17-.33.17h-.83c-.25,0-.42-.25-.25-.5ZM291.86,317.09c-.92-2-1.75-3.99-2.66-5.99h-.17l-2.66,5.99h5.49Z"/>
      <path d="M301.85,309.85h-3.16c-.17,0-.33-.17-.33-.33v-.5c0-.17.17-.33.33-.33h7.82c.17,0,.33.17.33.33v.5c0,.17-.17.33-.33.33h-3.16v11.23c0,.17-.17.33-.33.33h-.67c-.17,0-.33-.17-.33-.33v-11.23h-.17Z"/>
      <path d="M312.5,309.02c0-.17.17-.33.33-.33h.75c.17,0,.33.17.33.33v5.33h7.49v-5.33c0-.17.17-.33.33-.33h.75c.17,0,.33.17.33.33v12.15c0,.17-.17.33-.33.33h-.75c-.17,0-.33-.17-.33-.33v-5.58h-7.49v5.58c0,.17-.17.33-.33.33h-.75c-.17,0-.33-.17-.33-.33v-12.15h0Z"/>
      <path d="M330.22,309.02c0-.17.17-.33.33-.33h7.24c.17,0,.33.17.33.33v.5c0,.17-.17.33-.33.33h-6.16v4.49h5.24c.17,0,.33.17.33.33v.5c0,.17-.17.33-.33.33h-5.24v4.66h6.16c.17,0,.33.17.33.33v.5c0,.17-.17.33-.33.33h-7.24c-.17,0-.33-.17-.33-.33v-11.98Z"/>
      <path d="M344.7,309.02c0-.17.17-.33.33-.33h4.74c2.16,0,3.99,1.75,3.99,3.91,0,1.66-1.08,3.08-2.75,3.74l2.5,4.66c.17.25,0,.5-.33.5h-.92c-.17,0-.25-.08-.33-.17l-2.41-4.83h-3.49v4.66c0,.17-.17.33-.33.33h-.75c-.17,0-.33-.17-.33-.33l.08-12.15h0ZM349.78,315.26c1.41,0,2.66-1.16,2.66-2.66,0-1.41-1.25-2.58-2.66-2.58h-3.58v5.24h3.58Z"/>
      <path d="M382.98,319.59c.08-.08.17-.25.25-.33.17-.25.42-.42.67-.17.17.08,1.5,1.41,3.08,1.41,1.5,0,2.5-.92,2.5-2,0-1.25-1.08-2-3.25-2.91-2-.92-3.25-1.75-3.25-3.83,0-1.25,1-3.25,3.91-3.25,1.83,0,3.16.92,3.16.92.08.08.33.25.08.58-.08.08-.17.25-.25.33-.17.25-.33.33-.67.17-.17-.08-1.25-.83-2.41-.83-1.91,0-2.5,1.25-2.5,2,0,1.25.92,1.91,2.5,2.58,2.5,1,4.08,1.91,4.08,4.08,0,1.91-1.83,3.33-3.99,3.33s-3.66-1.25-3.91-1.5c-.08-.08-.25-.25,0-.58Z"/>
      <path d="M399.04,309.85h-3.16c-.17,0-.33-.17-.33-.33v-.5c0-.17.17-.33.33-.33h7.82c.17,0,.33.17.33.33v.5c0,.17-.17.33-.33.33h-3.16v11.23c0,.17-.17.33-.33.33h-.67c-.17,0-.33-.17-.33-.33v-11.23h-.17Z"/>
      <path d="M407.19,321l5.58-12.32c.08-.08.17-.17.33-.17h.17c.17,0,.25.08.33.17l5.58,12.32c.08.25,0,.5-.33.5h-.75c-.17,0-.25-.08-.33-.17l-1.33-3h-6.49l-1.33,3c0,.08-.17.17-.33.17h-.75c-.25,0-.42-.25-.33-.5ZM415.93,317.09c-.92-2-1.75-3.99-2.66-5.99h-.17l-2.66,5.99h5.49Z"/>
      <path d="M426.5,315.34l-4.41-6.16c-.17-.25,0-.5.33-.5h.83c.17,0,.25.08.33.17l3.74,5.16,3.74-5.16c.08-.08.17-.17.33-.17h.83c.33,0,.42.33.33.5l-4.49,6.07v5.82c0,.17-.17.33-.33.33h-.75c-.17,0-.33-.17-.33-.33v-5.74h-.17Z"/>
    </g>
    <circle cx="368.83" cy="315.18" r="1.08"/>
    <circle cx="252.42" cy="315.18" r="1.08"/>
    <rect x="471.6" y="269.91" width="32.95" height="2.58"/>
    <rect x="92.82" y="269.91" width="32.95" height="2.58"/>
  </g>
</svg>