<?xml version="1.0" encoding="utf-8"?>
<!-- Generator: Adobe Illustrator 25.1.0, SVG Export Plug-In . SVG Version: 6.00 Build 0)  -->
<svg version="1.1" id="Layer_1" xmlns="http://www.w3.org/2000/svg" xmlns:xlink="http://www.w3.org/1999/xlink" x="0px" y="0px"
	 viewBox="0 0 600 357.7" style="enable-background:new 0 0 600 357.7;" xml:space="preserve">
<style type="text/css">
	.st0{fill:#FFFFFF;}
</style>
<g>
	<path class="st0" d="M402.5,41c-0.1-1.5-0.5-3.5-4.2-5.4c-0.3-0.1-0.5-0.3-0.8-0.4c-0.7-0.4-1.4-0.9-2-1.6c-0.3-0.4-0.7-0.8-1-1.2
		c-3.3-3.8-5.7-6.2-7-7c-0.4-0.2-0.7-0.5-0.9-0.8c-0.6-0.6-0.9-1.3-1-2c0-0.2-0.1-0.4-0.1-0.6s-0.1-0.4-0.1-0.5
		c0-0.2-0.1-0.3-0.1-0.5c-0.2-1.5-1.5-2.5-2.6-3.5c-1.2-1.1-2.5-2.2-3.7-3.3c-1.5-1.3-2.3-2-3.6-3.5c-0.5-0.6-1.1-0.9-1.5-1.3
		c-1-1-3,0-4.3,2.6c-0.8,1.6-1.4,2-2.9,2.7s-3,1.5-4.6,2c-0.2,0.1-0.4,0.2-0.7,0.2c-0.2,0-0.4,0-0.6,0.1c-5.4,0.3-13.9,0-23.1-0.5
		c-8.3-1.3-16.2-1.9-23.6,0.5c-10,3.3-34.7-0.1-52-2.4c-5.2-1.8-11.2-3-17.2-3.5l0,0c-9.3-1.5-27-0.5-33.7,3.7
		c-10.8,6.8-8.9,19.9-9.1,31.1c-0.2,7.3-1.7,16.4-3.5,21c-6.5,5.4-14.2,12.4-5.2,26.5c1.4-7.9,13.5-12.9,9-26.3
		c1.6-4.2,3-13.4,3.1-21.2c0.1-10.7-1.3-24.8,12.2-29c-6.4,4.8-9.6,12.7-6.6,24.7c1,4.1,2.6,7.7,3.5,11.9
		c2.8,12.2,1.4,21.7-4.4,28.4c-1.4,1.7-2.2,3.9-1.9,6.1c1.5,12.1,2.2,21.8,2.1,28.9c2.5,3,3,5.2,3,5.2c-0.4,1.7-0.6,2.7-0.6,3.5
		c-0.1,3,0,2.8,2.4,2.8c2.7,0,5.1,0,7.5,0c4.5,0,2.9-1.6,1.5-4.4c-0.5-1-1.4-1.8-2-2.2c-5.1-10.3-5.8-20.2-2.1-29.6
		c0.6-1.5,1.3-3.1,2.1-4.6c1.3,5.6,2.4,10.6,3.2,15.1c0.7,3.8,2.7,11.2,3,14.2c2.8,3,3.7,5.2,3.7,5.2c-0.2,1.7-0.3,2.7-0.2,3.5
		c0.2,3,0.3,2.8,2.7,2.8c1.1,0,2.2,0,3.3,0c1.4,0,2.8,0,4.2,0s2.2-0.2,2.6-0.5c0.8-0.7-0.4-2-1.6-4c-0.6-1-1.6-1.8-2.3-2.2
		c-4.7-7.6-8.4-18.9-8.3-26c0.3-2.2,0.9-4.3,1.8-6.2c1.7-3.5,4.3-6.6,7.7-9.2c1.1-0.9,2.1-0.8,3.3-0.3c2.5,0.9,5,1.8,7.5,2.6
		c1.8,0.6,3.7,1.3,5.5,2c2.9,1.1,5.8,1.5,8.9,1.5c6.6-0.1,13.1-0.7,19.5-1.9c4.1-0.2,8.5-0.9,13.3-2.3l0,0c0.6,4,1.3,8.6,1.7,11.7
		c0,0.2,0,0.4,0.1,0.6c0,0.5,0.1,1,0.2,1.4c0.4,1.8,1,3.1,1.1,4.9c0.4,4.6,0.3,12.7,0.3,16.2c2.5,3,3,5.2,3,5.2
		c-0.4,1.7-0.6,2.7-0.6,3.5c-0.1,3,0,2.8,2.3,2.8c0,0,0,0,0.1,0c2.7,0,5.1,0,7.5,0c4.5,0,2.9-1.6,1.5-4.4c-0.5-1-1.4-1.8-2-2.2
		c-2.7-5.5-4-14.3-4.2-19.6c-0.1-1.9,2-4.4,2.2-6.2c0.6-4.3,1.6-9.1,2.9-13.1c0.9,0.1,1.8,0.3,2.7,1.1c0.6,4.6,1.6,10.7,2,14.3
		c0.2,2.6,1.2,4.1,1.3,6.4c0.4,4.6,0.5,8.7,0.4,12.2c2.5,3,3,5.2,3,5.2c-0.4,1.7-0.6,2.7-0.6,3.5c-0.1,3,0,2.8,2.4,2.8
		c2.7,0,5.1,0,7.5,0c4.5,0,2.9-1.6,1.5-4.4c-0.5-1-1.4-1.8-2-2.2c-2.7-5.5-4.2-10.4-4.4-15.7c-0.1-1.9,2-4.4,2.2-6.2
		c0.9-6.5,2.6-12.1,4.9-18.4c14-6,15.3-19.6,29.4-30.5c6.6-0.2,11.7-1,15.5-2.3c2.4-0.6,5.6,0,9.4,1.7c4.4,1.6,6.7,0.8,6.7-2.3
		c1.6,0.2,2.4-0.2,2.4-1.2C401.9,45,402.7,43.1,402.5,41z"/>
	<g>
		<path class="st0" d="M73.4,232.6c-1.2-0.3-2.2-0.7-2.9-1.2c-0.7-0.5-1.3-1.2-1.9-2.1L56,209.6c2-0.6,3.8-1.5,5.5-2.6
			c2.5-1.7,4.4-3.7,5.8-6.2s2-5.3,2-8.4c0-4.4-1.2-8.3-3.7-11.7s-6-6.1-10.8-8c-4.7-1.9-10.5-2.9-17.3-2.9H15.9
			c-0.8,0-1.4,0.2-1.8,0.5c-0.4,0.3-0.6,0.7-0.6,1.3c0,1,0.6,1.6,1.9,1.9l3.1,0.6c0.8,0.2,1.3,0.5,1.8,0.9c0.4,0.4,0.6,1,0.6,1.6
			v52.9c0,0.7-0.2,1.2-0.6,1.6c-0.4,0.4-1,0.7-1.8,0.9l-3.1,0.6c-1.2,0.3-1.9,1-1.9,1.9c0,0.5,0.2,1,0.6,1.3c0.4,0.3,1,0.5,1.8,0.5
			h21.9c1.6,0,2.3-0.6,2.3-1.8c0-0.5-0.1-0.9-0.4-1.2c-0.3-0.3-0.7-0.6-1.4-0.8l-4.2-0.6c-0.7-0.2-1.2-0.5-1.6-0.9
			c-0.4-0.4-0.5-1-0.5-1.6V210c0.2,0.1,0.4,0.1,0.5,0.2c1.6,0.5,3.3,0.9,5.2,1.2s3.8,0.4,5.8,0.4c0.7,0,1.3,0,2-0.1l11.2,18.2
			c0.5,0.8,0.7,1.4,0.6,1.9c-0.1,0.4-0.5,0.8-1.2,1l-1.8,0.4c-0.5,0.2-0.9,0.4-1.1,0.6c-0.2,0.2-0.4,0.5-0.4,0.9
			c0,1.2,0.8,1.8,2.4,1.8h18.5c0.8,0,1.4-0.2,1.9-0.5c0.4-0.3,0.6-0.7,0.6-1.3c0-0.5-0.2-0.9-0.5-1.2
			C75.3,233.2,74.5,232.9,73.4,232.6z M41.7,207.9c-1.7,0-3.3-0.1-4.9-0.4c-1.6-0.3-3.1-0.6-4.5-1.1c-0.1,0-0.2-0.1-0.3-0.1v-32.8
			h5.3c4.2,0,7.8,0.8,10.9,2.4c3.1,1.6,5.4,3.9,7.1,6.8c1.7,2.9,2.5,6.1,2.5,9.8c0,5-1.4,8.8-4.3,11.4
			C50.6,206.6,46.7,207.9,41.7,207.9z"/>
		<path class="st0" d="M152.2,217.2c-0.5-0.1-1,0-1.5,0.2c-0.4,0.2-0.8,0.6-1.1,1.2c-1.6,3.9-3.1,6.9-4.4,8.8c-1.3,2-2.7,3.3-4.1,4
			c-1.4,0.7-3.2,1-5.3,1h-11.5c-1.8,0-3.1-0.4-4-1.1c-0.9-0.7-1.3-1.8-1.3-3.2v-23.2h14c1.3,0,2.3,0.1,3.2,0.4
			c0.8,0.3,1.6,0.8,2.3,1.6s1.4,1.9,2.2,3.3c0.3,0.5,0.7,0.8,1.1,1c0.4,0.2,0.9,0.2,1.5,0.1c0.5-0.2,0.9-0.5,1.1-0.9
			c0.2-0.4,0.2-0.9,0-1.6l-3.5-13.6c-0.3-1.3-1-1.8-2-1.7c-0.5,0.1-0.9,0.3-1.2,0.6s-0.5,0.8-0.6,1.5c-0.3,2.2-0.8,3.6-1.6,4.4
			c-0.8,0.7-2.1,1.1-4.1,1.1h-12.3v-27.5h15.4c1.6,0,2.9,0.1,4.1,0.4c1.2,0.3,2.2,0.8,3.2,1.5c1,0.8,1.9,1.9,2.8,3.4
			c0.9,1.5,1.9,3.4,3,5.8c0.3,0.7,0.8,1.1,1.3,1.4c0.5,0.3,1.1,0.3,1.8,0.1c0.6-0.2,1-0.5,1.2-0.9s0.2-1,0-1.6l-3.7-13.3
			c-0.3-1-0.6-1.6-1-2.1c-0.4-0.4-1-0.6-1.8-0.6c-0.7,0-1.4,0.2-1.9,0.5c-0.6,0.3-1.2,0.7-1.8,1c-0.7,0.3-1.5,0.5-2.5,0.5H103
			c-0.8,0-1.4,0.2-1.8,0.5s-0.6,0.7-0.6,1.3c0,1,0.6,1.6,1.8,1.9l3.1,0.6c0.8,0.2,1.4,0.5,1.8,0.9s0.6,1,0.6,1.6v52.9
			c0,0.7-0.2,1.2-0.6,1.6c-0.4,0.4-1,0.7-1.8,0.9l-3.1,0.6c-1.2,0.3-1.8,1-1.8,1.9c0,0.5,0.2,1,0.6,1.3s1,0.5,1.8,0.5h37.8
			c1,0,1.8,0.2,2.4,0.5c0.6,0.3,1.3,0.6,1.8,0.9c0.6,0.3,1.2,0.4,1.9,0.4c0.8,0,1.5-0.2,1.9-0.7c0.4-0.4,0.8-1.1,1-2.1l3.9-15.6
			c0.2-0.8,0.1-1.4-0.1-1.8C153.3,217.6,152.8,217.3,152.2,217.2z"/>
		<path class="st0" d="M235.4,179.7c-3.5-3.1-7.6-5.6-12.5-7.3c-4.8-1.7-10.2-2.6-16.1-2.6h-23.2c-0.8,0-1.4,0.2-1.8,0.5
			c-0.4,0.3-0.6,0.7-0.6,1.3c0,1,0.6,1.6,1.8,1.9l3.1,0.6c0.8,0.2,1.4,0.5,1.8,0.9c0.4,0.4,0.6,1,0.6,1.6v52.9
			c0,0.7-0.2,1.2-0.6,1.6c-0.4,0.4-1,0.7-1.8,0.9l-3.1,0.6c-1.2,0.3-1.8,1-1.8,1.9c0,0.5,0.2,1,0.6,1.3c0.4,0.3,1,0.5,1.8,0.5H211
			c7.5,0,13.8-1.4,19.1-4.1c5.2-2.7,9.3-6.5,12-11.2c2.8-4.7,4.2-10.1,4.2-16.2c0-5.1-0.9-9.8-2.8-14.1
			C241.6,186.5,238.9,182.8,235.4,179.7z M231.7,219.9c-2,4.1-4.8,7.3-8.4,9.4c-3.6,2.1-8,3.2-13,3.2h-5.5c-1.7,0-3-0.3-3.9-1
			c-0.8-0.6-1.3-1.7-1.3-3v-54.8h5.8c4.5,0,8.5,0.7,12.1,2.2s6.6,3.5,9.2,6.3c2.6,2.7,4.5,6,5.8,9.7c1.3,3.8,2,8,2,12.8
			C234.7,210.7,233.7,215.8,231.7,219.9z"/>
		<path class="st0" d="M371.7,218.2c-0.4-0.1-0.8,0-1.2,0.2c-0.3,0.2-0.7,0.6-1,1.2c-1.7,3.8-4.2,6.8-7.5,8.9
			c-3.3,2.1-7.3,3.2-12,3.2s-8.9-1.2-12.6-3.6c-3.7-2.4-6.7-5.9-8.8-10.5c-2.2-4.6-3.2-10.1-3.2-16.6c0-4.3,0.5-8.2,1.6-11.7
			s2.6-6.5,4.5-9.1c1.9-2.5,4.2-4.5,6.8-5.8c2.6-1.3,5.5-2,8.5-2c3.1,0,5.9,0.5,8.5,1.5s4.9,2.7,7.1,5c2.1,2.3,4.1,5.3,5.9,9.1
			c0.3,0.6,0.7,1,1.1,1.3c0.5,0.3,1,0.3,1.6,0.2s1.1-0.4,1.4-0.9s0.4-1,0.2-1.7l-5.1-16.1c-0.2-0.7-0.5-1.2-0.8-1.5
			s-0.7-0.4-1.1-0.4c-0.8,0-1.3,0.3-1.6,0.9c-0.3,0.6-0.7,1.1-1,1.7c-0.3,0.6-0.9,0.9-1.6,0.9c-0.6,0-1.5-0.3-2.6-1
			c-1.2-0.7-2.8-1.4-4.8-2c-2.1-0.7-4.8-1-8.1-1c-4.5,0-8.7,0.9-12.5,2.6c-3.8,1.7-7.2,4.2-10,7.4s-5,6.9-6.6,11.2s-2.4,9-2.4,14.1
			c0,6.7,1.3,12.7,4,17.9c2.6,5.2,6.4,9.3,11.3,12.2c4.9,3,10.7,4.4,17.5,4.4c4.1,0,7.7-0.6,10.9-1.7c3.2-1.1,5.9-2.6,8.1-4.4
			c2.2-1.8,3.9-3.8,5.1-6s1.8-4.3,1.8-6.4c0-0.4-0.1-0.8-0.3-1C372.4,218.4,372.1,218.2,371.7,218.2z"/>
		<path class="st0" d="M457.3,178.2c-3-3.2-6.5-5.6-10.7-7.3c-4.1-1.7-8.7-2.6-13.7-2.6s-9.5,0.8-13.6,2.5s-7.6,4.1-10.6,7.2
			c-2.9,3.1-5.2,6.7-6.8,10.9c-1.6,4.2-2.4,8.8-2.4,13.9c0,5.2,0.8,9.9,2.4,14.2s3.9,8,6.9,11.2s6.5,5.6,10.6,7.3s8.6,2.6,13.6,2.6
			s9.6-0.8,13.7-2.5s7.7-4.1,10.6-7.2s5.2-6.7,6.8-11c1.6-4.2,2.4-8.8,2.4-13.8c0-5.2-0.8-9.9-2.4-14.2
			C462.6,185,460.3,181.3,457.3,178.2z M452.8,222.7c-1.6,3.6-3.9,6.4-6.8,8.3c-2.9,1.9-6.3,2.9-10.2,2.9c-2.7,0-5.3-0.6-7.8-1.8
			s-4.7-3-6.8-5.2c-2-2.3-3.8-5-5.3-8.1s-2.7-6.5-3.5-10.3c-0.8-3.7-1.2-7.7-1.2-11.9c0-5,0.8-9.4,2.4-13s3.9-6.4,6.8-8.3
			c2.9-1.9,6.3-2.9,10.1-2.9c2.8,0,5.4,0.6,7.8,1.9c2.5,1.2,4.7,3,6.8,5.2c2.1,2.3,3.8,4.9,5.4,8c1.5,3.1,2.7,6.5,3.5,10.2
			s1.3,7.7,1.3,11.8C455.2,214.7,454.4,219.1,452.8,222.7z"/>
		<path class="st0" d="M587.1,170.3c-0.4-0.3-1-0.5-1.9-0.5h-14.6c-0.8,0-1.4,0.2-1.8,0.5c-0.4,0.3-0.6,0.7-0.6,1.3
			c0,0.4,0.1,0.8,0.4,1c0.3,0.3,0.7,0.5,1.3,0.6l3.2,0.6c1.4,0.3,2.3,0.9,2.6,1.7s0.2,1.9-0.2,3.3l-14,46.7l-14.3-48.1
			c-0.4-1.3-0.5-2.2-0.3-2.7s0.6-0.8,1.3-1l3.6-0.5c0.6-0.2,1.1-0.4,1.4-0.7c0.3-0.3,0.5-0.6,0.5-1.1c0-0.6-0.2-1-0.6-1.3
			c-0.4-0.3-1-0.5-1.8-0.5h-19.4c-0.8,0-1.4,0.2-1.8,0.5c-0.4,0.3-0.6,0.7-0.6,1.3c0,0.4,0.1,0.7,0.4,1c0.2,0.3,0.7,0.5,1.4,0.7
			l2.1,0.6c0.6,0.2,1,0.4,1.3,0.8c0.3,0.3,0.6,1,0.9,2l2.2,7.2l-13.5,41.4l-14.8-47.8c-0.3-1.2-0.5-2.1-0.3-2.6
			c0.1-0.5,0.6-0.9,1.4-1l3.7-0.6c1.1-0.3,1.7-0.8,1.7-1.7c0-0.5-0.2-1-0.6-1.3c-0.4-0.3-1-0.5-1.8-0.5h-19.8
			c-0.9,0-1.5,0.2-1.9,0.5s-0.6,0.7-0.6,1.2c0,0.4,0.1,0.8,0.4,1.1c0.2,0.3,0.7,0.6,1.4,0.8l2.1,0.6c0.7,0.2,1.2,0.5,1.6,0.9
			s0.7,1,1,1.8l16.5,52.6c0.3,0.8,0.4,1.5,0.5,1.9s0.1,0.9,0.1,1.5v1.7c0,0.7,0.2,1.2,0.6,1.5c0.4,0.4,0.9,0.5,1.5,0.5h8.2
			c0.6,0,1.1-0.2,1.4-0.5c0.3-0.4,0.5-0.9,0.5-1.5v-1.7c0-0.7,0.1-1.4,0.2-1.9c0.1-0.6,0.3-1.2,0.5-1.8l12.2-37.7l11.4,37.9
			c0.3,0.9,0.4,1.6,0.4,2c0,0.5,0,1,0,1.5v1.7c0,0.7,0.2,1.2,0.5,1.5c0.4,0.4,0.9,0.5,1.5,0.5h8.7c0.6,0,1.1-0.2,1.4-0.5
			c0.3-0.4,0.5-0.9,0.5-1.5v-1.7c0-0.6,0.1-1.2,0.2-1.7c0.1-0.5,0.3-1.2,0.6-2l14.9-49.6c0.5-1.6,1-2.8,1.6-3.6
			c0.6-0.7,1.3-1.3,2.2-1.7l1.9-0.6c0.8-0.3,1.3-0.6,1.5-0.8c0.2-0.3,0.4-0.6,0.4-1C587.6,171,587.4,170.6,587.1,170.3z"/>
	</g>
	<g>
		<g>
			<path class="st0" d="M116.7,271.6c0-0.5,0.5-0.9,0.9-0.9h1.2l21.7,25.1h0.1v-23.6c0-0.5,0.4-0.9,0.9-0.9h3.2
				c0.5,0,0.9,0.4,0.9,0.9v33.6c0,0.5-0.4,0.9-0.9,0.9h-1.3l-21.7-25.8l0,0v24.3c0,0.5-0.4,0.9-0.9,0.9h-3.1c-0.5,0-0.9-0.4-0.9-0.9
				L116.7,271.6L116.7,271.6z"/>
			<path class="st0" d="M165.7,304.9l15.3-33.6c0.2-0.3,0.6-0.6,0.8-0.6h0.5c0.2,0,0.7,0.3,0.8,0.6l15.2,33.6
				c0.3,0.6-0.1,1.3-0.8,1.3h-3.1c-0.6,0-0.9-0.3-1.1-0.7l-3.1-6.8h-16.3c-1,2.3-2,4.5-3,6.8c-0.2,0.4-0.5,0.7-1.1,0.7h-3.1
				C165.8,306.2,165.4,305.5,165.7,304.9z M188.4,294.3l-6.1-13.7H182l-6.1,13.7H188.4z"/>
			<path class="st0" d="M218.5,271.6c0-0.5,0.5-0.9,0.9-0.9h1.2l21.7,25.1h0.1v-23.6c0-0.5,0.4-0.9,0.9-0.9h3.2
				c0.5,0,0.9,0.4,0.9,0.9v33.6c0,0.5-0.4,0.9-0.9,0.9h-1.3l-21.7-25.8l0,0v24.3c0,0.5-0.4,0.9-0.9,0.9h-3.1c-0.5,0-0.9-0.4-0.9-0.9
				L218.5,271.6L218.5,271.6z"/>
			<path class="st0" d="M277,275.9h-8.1c-0.5,0-0.9-0.4-0.9-0.9v-2.8c0-0.5,0.4-0.9,0.9-0.9h21.5c0.5,0,0.9,0.4,0.9,0.9v2.8
				c0,0.5-0.4,0.9-0.9,0.9h-8.1v29.3c0,0.5-0.5,0.9-0.9,0.9H278c-0.5,0-0.9-0.4-0.9-0.9v-29.3H277z"/>
			<path class="st0" d="M308.5,272.4c-0.2-0.7,0.2-1.2,0.9-1.2h3.3c0.4,0,0.8,0.3,0.9,0.7l6,22.9h0.2l8.1-23.6
				c0.1-0.3,0.4-0.6,0.8-0.6h0.9c0.4,0,0.7,0.3,0.8,0.6l8.2,23.6h0.2l5.9-22.9c0.1-0.4,0.5-0.7,0.9-0.7h3.3c0.7,0,1.1,0.5,0.9,1.2
				l-9.4,33.6c-0.1,0.4-0.5,0.7-0.9,0.7h-0.8c-0.4,0-0.7-0.2-0.8-0.5l-8.8-24.8h-0.3l-8.6,24.8c-0.1,0.3-0.5,0.5-0.8,0.5h-0.8
				c-0.4,0-0.8-0.3-0.9-0.7L308.5,272.4z"/>
			<path class="st0" d="M371.5,272.1c0-0.5,0.5-0.9,0.9-0.9h3.3c0.5,0,0.9,0.4,0.9,0.9v33.1c0,0.5-0.4,0.9-0.9,0.9h-3.3
				c-0.5,0-0.9-0.4-0.9-0.9V272.1z"/>
			<path class="st0" d="M416.9,270.7c5,0,8.7,1.7,12.1,4.6c0.5,0.4,0.5,1,0.1,1.4l-2.2,2.2c-0.4,0.5-0.8,0.5-1.2,0
				c-2.3-2-5.5-3.3-8.6-3.3c-7.1,0-12.5,6-12.5,13s5.4,12.9,12.6,12.9c3.6,0,6.2-1.4,8.6-3.3c0.4-0.3,0.9-0.3,1.2-0.1l2.3,2.2
				c0.4,0.3,0.3,1-0.1,1.3c-3.4,3.3-7.7,4.8-12.1,4.8c-10,0-18-7.9-18-17.9C398.9,278.7,406.9,270.7,416.9,270.7z"/>
			<path class="st0" d="M451.2,272.1c0-0.5,0.5-0.9,0.9-0.9h3.3c0.5,0,0.9,0.4,0.9,0.9V286h18.3v-13.9c0-0.5,0.4-0.9,0.9-0.9h3.3
				c0.5,0,0.9,0.4,0.9,0.9v33.1c0,0.5-0.5,0.9-0.9,0.9h-3.3c-0.5,0-0.9-0.4-0.9-0.9v-14.4h-18.3v14.4c0,0.5-0.4,0.9-0.9,0.9h-3.3
				c-0.5,0-0.9-0.4-0.9-0.9V272.1z"/>
		</g>
	</g>
	<g>
		<g>
			<path class="st0" d="M147.9,334.4c2.2,0,3.8,0.8,5.3,2.1c0.2,0.2,0.2,0.4,0,0.6s-0.4,0.4-0.6,0.6c-0.2,0.2-0.3,0.2-0.6,0
				c-1.1-1-2.7-1.7-4.2-1.7c-3.5,0-6.1,2.9-6.1,6.3s2.6,6.4,6.1,6.4c2.4,0,4-0.9,4-0.9v-3.1h-2.5c-0.2,0-0.4-0.2-0.4-0.4v-0.8
				c0-0.2,0.2-0.4,0.4-0.4h3.8c0.2,0,0.4,0.2,0.4,0.4v5.1c0,0.1-0.1,0.3-0.2,0.4c0,0-2.2,1.5-5.4,1.5c-4.4,0-8-3.5-8-7.9
				C139.9,338,143.5,334.4,147.9,334.4z"/>
			<path class="st0" d="M161.6,335.1c0-0.2,0.2-0.4,0.4-0.4h5.7c2.6,0,4.8,2.1,4.8,4.7c0,2-1.3,3.7-3.3,4.5l3,5.6
				c0.2,0.3,0,0.6-0.4,0.6h-1.1c-0.2,0-0.3-0.1-0.4-0.2l-2.9-5.8h-4.2v5.6c0,0.2-0.2,0.4-0.4,0.4H162c-0.2,0-0.4-0.2-0.4-0.4V335.1z
				 M167.6,342.6c1.7,0,3.2-1.4,3.2-3.2c0-1.7-1.5-3.1-3.2-3.1h-4.3v6.3L167.6,342.6L167.6,342.6z"/>
			<path class="st0" d="M178.5,349.5l6.7-14.8c0.1-0.1,0.2-0.2,0.4-0.2h0.2c0.2,0,0.3,0.1,0.4,0.2l6.7,14.8c0.1,0.3,0,0.6-0.4,0.6
				h-0.9c-0.2,0-0.3-0.1-0.4-0.2l-1.6-3.6h-7.8l-1.6,3.6c0,0.1-0.2,0.2-0.4,0.2h-0.9C178.5,350.1,178.3,349.8,178.5,349.5z
				 M189,344.8c-1.1-2.4-2.1-4.8-3.2-7.2h-0.2l-3.2,7.2H189z"/>
			<path class="st0" d="M198,349.3l8-13v-0.1h-6.9c-0.2,0-0.4-0.2-0.4-0.4v-0.7c0-0.2,0.2-0.4,0.4-0.4h8.9c0.2,0,0.4,0.2,0.4,0.4
				v0.3l-8.1,13.2l0,0h7.3c0.2,0,0.4,0.2,0.4,0.4v0.7c0,0.2-0.2,0.4-0.4,0.4h-9.1c-0.2,0-0.4-0.2-0.4-0.4L198,349.3L198,349.3z"/>
			<path class="st0" d="M215.8,335.1c0-0.2,0.2-0.4,0.4-0.4h8.7c0.2,0,0.4,0.2,0.4,0.4v0.6c0,0.2-0.2,0.4-0.4,0.4h-7.4v5.4h6.3
				c0.2,0,0.4,0.2,0.4,0.4v0.6c0,0.2-0.2,0.4-0.4,0.4h-6.3v5.6h7.4c0.2,0,0.4,0.2,0.4,0.4v0.6c0,0.2-0.2,0.4-0.4,0.4h-8.7
				c-0.2,0-0.4-0.2-0.4-0.4V335.1z"/>
			<path class="st0" d="M268.1,334.4c2.2,0,3.8,0.8,5.3,2.1c0.2,0.2,0.2,0.4,0,0.6s-0.4,0.4-0.6,0.6s-0.3,0.2-0.6,0
				c-1.1-1-2.7-1.7-4.2-1.7c-3.5,0-6.1,2.9-6.1,6.3s2.6,6.4,6.1,6.4c2.4,0,4-0.9,4-0.9v-3.1h-2.5c-0.2,0-0.4-0.2-0.4-0.4v-0.8
				c0-0.2,0.2-0.4,0.4-0.4h3.8c0.2,0,0.4,0.2,0.4,0.4v5.1c0,0.1-0.1,0.3-0.2,0.4c0,0-2.2,1.5-5.4,1.5c-4.4,0-8-3.5-8-7.9
				C260.1,338,263.6,334.4,268.1,334.4z"/>
			<path class="st0" d="M279.7,349.5l6.7-14.8c0.1-0.1,0.2-0.2,0.4-0.2h0.2c0.2,0,0.3,0.1,0.4,0.2l6.7,14.8c0.1,0.3,0,0.6-0.4,0.6
				h-0.9c-0.2,0-0.3-0.1-0.4-0.2l-1.6-3.6H283l-1.6,3.6c0,0.1-0.2,0.2-0.4,0.2h-1C279.7,350.1,279.5,349.8,279.7,349.5z
				 M290.1,344.8c-1.1-2.4-2.1-4.8-3.2-7.2h-0.2l-3.2,7.2H290.1z"/>
			<path class="st0" d="M302.1,336.1h-3.8c-0.2,0-0.4-0.2-0.4-0.4v-0.6c0-0.2,0.2-0.4,0.4-0.4h9.4c0.2,0,0.4,0.2,0.4,0.4v0.6
				c0,0.2-0.2,0.4-0.4,0.4h-3.8v13.5c0,0.2-0.2,0.4-0.4,0.4h-0.8c-0.2,0-0.4-0.2-0.4-0.4v-13.5H302.1z"/>
			<path class="st0" d="M314.9,335.1c0-0.2,0.2-0.4,0.4-0.4h0.9c0.2,0,0.4,0.2,0.4,0.4v6.4h9v-6.4c0-0.2,0.2-0.4,0.4-0.4h0.9
				c0.2,0,0.4,0.2,0.4,0.4v14.6c0,0.2-0.2,0.4-0.4,0.4H326c-0.2,0-0.4-0.2-0.4-0.4V343h-9v6.7c0,0.2-0.2,0.4-0.4,0.4h-0.9
				c-0.2,0-0.4-0.2-0.4-0.4L314.9,335.1L314.9,335.1z"/>
			<path class="st0" d="M336.2,335.1c0-0.2,0.2-0.4,0.4-0.4h8.7c0.2,0,0.4,0.2,0.4,0.4v0.6c0,0.2-0.2,0.4-0.4,0.4h-7.4v5.4h6.3
				c0.2,0,0.4,0.2,0.4,0.4v0.6c0,0.2-0.2,0.4-0.4,0.4h-6.3v5.6h7.4c0.2,0,0.4,0.2,0.4,0.4v0.6c0,0.2-0.2,0.4-0.4,0.4h-8.7
				c-0.2,0-0.4-0.2-0.4-0.4V335.1z"/>
			<path class="st0" d="M353.6,335.1c0-0.2,0.2-0.4,0.4-0.4h5.7c2.6,0,4.8,2.1,4.8,4.7c0,2-1.3,3.7-3.3,4.5l3,5.6
				c0.2,0.3,0,0.6-0.4,0.6h-1.1c-0.2,0-0.3-0.1-0.4-0.2l-2.9-5.8h-4.2v5.6c0,0.2-0.2,0.4-0.4,0.4h-0.9c-0.2,0-0.4-0.2-0.4-0.4
				L353.6,335.1L353.6,335.1z M359.7,342.6c1.7,0,3.2-1.4,3.2-3.2c0-1.7-1.5-3.1-3.2-3.1h-4.3v6.3L359.7,342.6L359.7,342.6z"/>
			<path class="st0" d="M399.6,347.8c0.1-0.1,0.2-0.3,0.3-0.4c0.2-0.3,0.5-0.5,0.8-0.2c0.2,0.1,1.8,1.7,3.7,1.7c1.8,0,3-1.1,3-2.4
				c0-1.5-1.3-2.4-3.9-3.5c-2.4-1.1-3.9-2.1-3.9-4.6c0-1.5,1.2-3.9,4.7-3.9c2.2,0,3.8,1.1,3.8,1.1c0.1,0.1,0.4,0.3,0.1,0.7
				c-0.1,0.1-0.2,0.3-0.3,0.4c-0.2,0.3-0.4,0.4-0.8,0.2c-0.2-0.1-1.5-1-2.9-1c-2.3,0-3,1.5-3,2.4c0,1.5,1.1,2.3,3,3.1
				c3,1.2,4.9,2.3,4.9,4.9c0,2.3-2.2,4-4.8,4c-2.6,0-4.4-1.5-4.7-1.8C399.5,348.4,399.3,348.2,399.6,347.8z"/>
			<path class="st0" d="M418.9,336.1h-3.8c-0.2,0-0.4-0.2-0.4-0.4v-0.6c0-0.2,0.2-0.4,0.4-0.4h9.4c0.2,0,0.4,0.2,0.4,0.4v0.6
				c0,0.2-0.2,0.4-0.4,0.4h-3.8v13.5c0,0.2-0.2,0.4-0.4,0.4h-0.8c-0.2,0-0.4-0.2-0.4-0.4v-13.5H418.9z"/>
			<path class="st0" d="M428.7,349.5l6.7-14.8c0.1-0.1,0.2-0.2,0.4-0.2h0.2c0.2,0,0.3,0.1,0.4,0.2l6.7,14.8c0.1,0.3,0,0.6-0.4,0.6
				h-0.9c-0.2,0-0.3-0.1-0.4-0.2l-1.6-3.6H432l-1.6,3.6c0,0.1-0.2,0.2-0.4,0.2h-0.9C428.8,350.1,428.6,349.8,428.7,349.5z
				 M439.2,344.8c-1.1-2.4-2.1-4.8-3.2-7.2h-0.2l-3.2,7.2H439.2z"/>
			<path class="st0" d="M451.9,342.7l-5.3-7.4c-0.2-0.3,0-0.6,0.4-0.6h1c0.2,0,0.3,0.1,0.4,0.2l4.5,6.2l4.5-6.2
				c0.1-0.1,0.2-0.2,0.4-0.2h1c0.4,0,0.5,0.4,0.4,0.6l-5.4,7.3v7c0,0.2-0.2,0.4-0.4,0.4h-0.9c-0.2,0-0.4-0.2-0.4-0.4v-6.9H451.9z"/>
		</g>
	</g>
	<circle class="st0" cx="382.6" cy="342.5" r="1.3"/>
	<circle class="st0" cx="242.7" cy="342.5" r="1.3"/>
	<g>
		<rect x="506.1" y="288.1" class="st0" width="39.6" height="3.1"/>
	</g>
	<g>
		<rect x="50.9" y="288.1" class="st0" width="39.6" height="3.1"/>
	</g>
</g>
</svg>
